<?xml version="1.0" standalone="no"?>
<!DOCTYPE svg PUBLIC "-//W3C//DTD SVG 20010904//EN"
 "http://www.w3.org/TR/2001/REC-SVG-20010904/DTD/svg10.dtd">
<svg version="1.0" xmlns="http://www.w3.org/2000/svg"
 width="1376.000000pt" height="1376.000000pt" viewBox="0 0 1376.000000 1376.000000"
 preserveAspectRatio="xMidYMid meet">
<metadata>
Created by potrace 1.14, written by Peter Selinger 2001-2017
</metadata>
<g transform="translate(0.000000,1376.000000) scale(0.100000,-0.100000)"
fill="#000000" stroke="none">
<path d="M66 11573 c-2 -2 87 -93 198 -203 111 -109 428 -424 706 -700 277
-275 508 -500 513 -500 4 0 6 -4 3 -8 -3 -5 5 -15 18 -22 13 -7 30 -23 37 -36
7 -13 14 -23 15 -21 2 2 208 -200 458 -447 250 -248 734 -729 1077 -1068 342
-340 626 -618 630 -618 4 0 11 -8 14 -17 4 -10 44 -52 90 -93 46 -41 83 -81
84 -89 0 -8 3 -12 6 -10 2 3 190 -179 417 -404 l413 -408 -419 -415 c-230
-228 -419 -414 -420 -414 -1 0 -192 -189 -426 -420 -234 -231 -426 -420 -426
-420 -7 0 -74 -74 -74 -81 0 -5 -4 -9 -8 -9 -5 0 -146 -135 -313 -301 -167
-165 -501 -494 -742 -732 -241 -238 -585 -577 -764 -754 -180 -178 -327 -323
-327 -323 -1 0 -174 -171 -386 -380 l-384 -380 1279 -1 c704 -1 1284 -1 1288
0 10 2 31 2 120 2 37 0 74 0 82 0 8 0 44 0 80 0 36 0 71 0 78 0 6 0 35 -1 62
-1 28 -1 57 -1 66 -1 9 1 182 165 385 367 203 201 662 655 1019 1009 358 354
865 857 1127 1117 262 260 740 734 1063 1053 323 319 592 586 598 593 24 25
39 41 261 260 124 123 226 227 226 231 0 4 -40 47 -90 95 -49 48 -90 92 -90
97 0 5 -4 9 -8 9 -5 0 -442 432 -973 960 -530 529 -1535 1529 -2232 2223
l-1268 1262 -1530 1 c-841 0 -1531 -1 -1533 -3z"/>
<path d="M5920 11571 c0 -3 240 -243 533 -533 292 -290 724 -717 959 -950 734
-728 1849 -1833 2361 -2341 271 -268 567 -562 659 -653 l167 -166 -312 -308
c-172 -170 -432 -427 -579 -572 -275 -271 -1074 -1059 -1549 -1529 -148 -146
-269 -265 -269 -265 0 1 -155 -152 -344 -339 -311 -307 -1254 -1238 -1527
-1507 l-109 -108 273 -1 c149 -1 276 -1 280 0 10 2 31 2 120 2 37 0 74 0 82 0
8 0 44 0 80 0 36 0 72 0 80 0 8 0 44 0 80 0 36 0 72 0 80 0 8 0 44 0 80 0 36
0 72 0 80 0 8 0 44 0 80 0 36 0 72 0 80 0 8 0 44 0 80 0 36 0 72 0 80 0 8 0
44 0 80 0 36 0 73 0 83 0 9 0 318 0 687 0 l670 -1 21 23 c12 12 126 125 253
251 127 126 231 233 231 238 0 4 4 8 9 8 5 0 202 192 437 426 236 234 464 459
507 501 42 41 77 79 77 84 0 5 4 9 8 9 7 0 221 210 1554 1533 292 290 532 527
532 527 1 0 234 231 519 514 l517 514 -392 391 c-215 215 -396 391 -400 391
-5 0 -8 3 -6 8 2 4 -27 37 -64 73 -38 36 -68 64 -68 61 0 -2 -15 14 -32 36
-18 23 -35 41 -38 41 -3 1 -510 504 -1128 1119 -617 614 -1122 1117 -1122
1117 0 0 -318 317 -707 705 l-708 705 -1532 1 c-843 0 -1533 -2 -1533 -5z"/>
</g>
</svg>
